<svg xmlns="http://www.w3.org/2000/svg" xmlns:xlink="http://www.w3.org/1999/xlink" fill="none" version="1.1" width="24" height="24" viewBox="0 0 24 24"><defs><clipPath id="master_svg0_131_9230"><rect x="0" y="0" width="24" height="24" rx="0"/></clipPath></defs><g style="mix-blend-mode:passthrough" clip-path="url(#master_svg0_131_9230)"><g style="mix-blend-mode:passthrough"><path d="M7.9999968190765385,21.00000250339508C7.9999968190765385,21.55230250339508,8.447716819076538,22.00000250339508,8.999996819076538,22.00000250339508C9.552286819076539,22.00000250339508,9.999996819076538,21.55230250339508,9.999996819076538,21.00000250339508C9.999996819076538,21.00000250339508,7.9999968190765385,21.00000250339508,7.9999968190765385,21.00000250339508C7.9999968190765385,21.00000250339508,7.9999968190765385,21.00000250339508,7.9999968190765385,21.00000250339508ZM14.000036819076538,21.00000250339508C14.000036819076538,21.55230250339508,14.447736819076539,22.00000250339508,15.000036819076538,22.00000250339508C15.552336819076539,22.00000250339508,16.000036819076538,21.55230250339508,16.000036819076538,21.00000250339508C16.000036819076538,21.00000250339508,14.000036819076538,21.00000250339508,14.000036819076538,21.00000250339508C14.000036819076538,21.00000250339508,14.000036819076538,21.00000250339508,14.000036819076538,21.00000250339508ZM14.454036819076538,12.10900250339508C14.454036819076538,12.10900250339508,14.000036819076538,13.00000250339508,14.000036819076538,13.00000250339508C14.000036819076538,13.00000250339508,14.454036819076538,12.10900250339508,14.454036819076538,12.10900250339508C14.454036819076538,12.10900250339508,14.454036819076538,12.10900250339508,14.454036819076538,12.10900250339508ZM14.891036819076538,12.54600250339508C14.891036819076538,12.54600250339508,14.000036819076538,13.00000250339508,14.000036819076538,13.00000250339508C14.000036819076538,13.00000250339508,14.891036819076538,12.54600250339508,14.891036819076538,12.54600250339508C14.891036819076538,12.54600250339508,14.891036819076538,12.54600250339508,14.891036819076538,12.54600250339508ZM9.108996819076538,12.54600250339508C9.108996819076538,12.54600250339508,9.999996819076538,13.00000250339508,9.999996819076538,13.00000250339508C9.999996819076538,13.00000250339508,9.108996819076538,12.54600250339508,9.108996819076538,12.54600250339508C9.108996819076538,12.54600250339508,9.108996819076538,12.54600250339508,9.108996819076538,12.54600250339508ZM9.546006819076538,12.10900250339508C9.546006819076538,12.10900250339508,9.999996819076538,13.00000250339508,9.999996819076538,13.00000250339508C9.999996819076538,13.00000250339508,9.546006819076538,12.10900250339508,9.546006819076538,12.10900250339508C9.546006819076538,12.10900250339508,9.546006819076538,12.10900250339508,9.546006819076538,12.10900250339508ZM3.999996819076538,8.00000250339508C3.999996819076538,8.00000250339508,3.399996819076538,7.200002503395081,3.399996819076538,7.200002503395081C3.148196819076538,7.38885250339508,2.999996819076538,7.685242503395081,2.999996819076538,8.00000250339508C2.999996819076538,8.00000250339508,3.999996819076538,8.00000250339508,3.999996819076538,8.00000250339508C3.999996819076538,8.00000250339508,3.999996819076538,8.00000250339508,3.999996819076538,8.00000250339508ZM20.000036819076538,8.00000250339508C20.000036819076538,8.00000250339508,21.000036819076538,8.00000250339508,21.000036819076538,8.00000250339508C21.000036819076538,7.685242503395081,20.85183681907654,7.38885250339508,20.60003681907654,7.200002503395081C20.60003681907654,7.200002503395081,20.000036819076538,8.00000250339508,20.000036819076538,8.00000250339508C20.000036819076538,8.00000250339508,20.000036819076538,8.00000250339508,20.000036819076538,8.00000250339508ZM10.079996819076538,3.4400025033950805C10.079996819076538,3.4400025033950805,10.679996819076537,4.240002503395081,10.679996819076537,4.240002503395081C10.679996819076537,4.240002503395081,10.079996819076538,3.4400025033950805,10.079996819076538,3.4400025033950805C10.079996819076538,3.4400025033950805,10.079996819076538,3.4400025033950805,10.079996819076538,3.4400025033950805ZM11.490836819076538,2.5658925033950806C11.490836819076538,2.5658925033950806,11.236336819076538,1.5988345033950806,11.236336819076538,1.5988345033950806C11.236336819076538,1.5988345033950806,11.490836819076538,2.5658925033950806,11.490836819076538,2.5658925033950806C11.490836819076538,2.5658925033950806,11.490836819076538,2.5658925033950806,11.490836819076538,2.5658925033950806ZM13.920036819076538,3.4400025033950805C13.920036819076538,3.4400025033950805,13.320036819076538,4.240002503395081,13.320036819076538,4.240002503395081C13.320036819076538,4.240002503395081,13.320036819076538,4.240002503395081,13.320036819076538,4.240002503395081C13.320036819076538,4.240002503395081,13.920036819076538,3.4400025033950805,13.920036819076538,3.4400025033950805C13.920036819076538,3.4400025033950805,13.920036819076538,3.4400025033950805,13.920036819076538,3.4400025033950805ZM12.509136819076538,2.5658925033950806C12.509136819076538,2.5658925033950806,12.763736819076538,1.5988345033950806,12.763736819076538,1.5988345033950806C12.763736819076538,1.5988345033950806,12.509136819076538,2.5658925033950806,12.509136819076538,2.5658925033950806C12.509136819076538,2.5658925033950806,12.509136819076538,2.5658925033950806,12.509136819076538,2.5658925033950806ZM5.092016819076538,20.78200250339508C5.092016819076538,20.78200250339508,5.546006819076538,19.89100250339508,5.546006819076538,19.89100250339508C5.546006819076538,19.89100250339508,5.092016819076538,20.78200250339508,5.092016819076538,20.78200250339508C5.092016819076538,20.78200250339508,5.092016819076538,20.78200250339508,5.092016819076538,20.78200250339508ZM4.217986819076538,19.908002503395082C4.217986819076538,19.908002503395082,5.1089968190765385,19.45400250339508,5.1089968190765385,19.45400250339508C5.1089968190765385,19.45400250339508,4.217986819076538,19.908002503395082,4.217986819076538,19.908002503395082C4.217986819076538,19.908002503395082,4.217986819076538,19.908002503395082,4.217986819076538,19.908002503395082ZM19.782036819076538,19.908002503395082C19.782036819076538,19.908002503395082,18.89103681907654,19.45400250339508,18.89103681907654,19.45400250339508C18.89103681907654,19.45400250339508,19.782036819076538,19.908002503395082,19.782036819076538,19.908002503395082C19.782036819076538,19.908002503395082,19.782036819076538,19.908002503395082,19.782036819076538,19.908002503395082ZM18.90803681907654,20.78200250339508C18.90803681907654,20.78200250339508,18.45403681907654,19.89100250339508,18.45403681907654,19.89100250339508C18.45403681907654,19.89100250339508,18.90803681907654,20.78200250339508,18.90803681907654,20.78200250339508C18.90803681907654,20.78200250339508,18.90803681907654,20.78200250339508,18.90803681907654,20.78200250339508ZM1.399995819076538,8.70000250339508C0.9581659190765381,9.03137250339508,0.8686258190765381,9.65817250339508,1.199995819076538,10.10000250339508C1.531366819076538,10.54183250339508,2.158166819076538,10.631372503395081,2.599996819076538,10.300002503395081C2.599996819076538,10.300002503395081,1.399995819076538,8.70000250339508,1.399995819076538,8.70000250339508C1.399995819076538,8.70000250339508,1.399995819076538,8.70000250339508,1.399995819076538,8.70000250339508ZM11.040036819076539,2.7200025033950803C11.040036819076539,2.7200025033950803,11.640036819076538,3.5200025033950806,11.640036819076538,3.5200025033950806C11.640036819076538,3.5200025033950806,11.640036819076538,3.5200025033950806,11.640036819076538,3.5200025033950806C11.640036819076538,3.5200025033950806,11.040036819076539,2.7200025033950803,11.040036819076539,2.7200025033950803C11.040036819076539,2.7200025033950803,11.040036819076539,2.7200025033950803,11.040036819076539,2.7200025033950803ZM12.960036819076539,2.7200025033950803C12.960036819076539,2.7200025033950803,12.360036819076537,3.5200025033950806,12.360036819076537,3.5200025033950806C12.360036819076537,3.5200025033950806,12.360036819076537,3.5200025033950806,12.360036819076537,3.5200025033950806C12.360036819076537,3.5200025033950806,12.960036819076539,2.7200025033950803,12.960036819076539,2.7200025033950803C12.960036819076539,2.7200025033950803,12.960036819076539,2.7200025033950803,12.960036819076539,2.7200025033950803ZM21.400036819076536,10.300002503395081C21.841836819076537,10.631372503395081,22.468636819076536,10.54183250339508,22.80003681907654,10.10000250339508C23.131436819076537,9.65817250339508,23.041836819076536,9.03137250339508,22.60003681907654,8.70000250339508C22.60003681907654,8.70000250339508,21.400036819076536,10.300002503395081,21.400036819076536,10.300002503395081C21.400036819076536,10.300002503395081,21.400036819076536,10.300002503395081,21.400036819076536,10.300002503395081ZM11.745436819076538,2.2829425033950805C11.745436819076538,2.2829425033950805,12.000036819076538,3.2500025033950806,12.000036819076538,3.2500025033950806C12.000036819076538,3.2500025033950806,12.000036819076538,3.2500025033950806,12.000036819076538,3.2500025033950806C12.000036819076538,3.2500025033950806,11.745436819076538,2.2829425033950805,11.745436819076538,2.2829425033950805C11.745436819076538,2.2829425033950805,11.745436819076538,2.2829425033950805,11.745436819076538,2.2829425033950805ZM12.254636819076538,2.2829425033950805C12.254636819076538,2.2829425033950805,12.000036819076538,3.2500025033950806,12.000036819076538,3.2500025033950806C12.000036819076538,3.2500025033950806,12.000036819076538,3.2500025033950806,12.000036819076538,3.2500025033950806C12.000036819076538,3.2500025033950806,12.254636819076538,2.2829425033950805,12.254636819076538,2.2829425033950805C12.254636819076538,2.2829425033950805,12.254636819076538,2.2829425033950805,12.254636819076538,2.2829425033950805ZM9.999996819076538,21.00000250339508C9.999996819076538,21.00000250339508,9.999996819076538,13.60000250339508,9.999996819076538,13.60000250339508C9.999996819076538,13.60000250339508,7.9999968190765385,13.60000250339508,7.9999968190765385,13.60000250339508C7.9999968190765385,13.60000250339508,7.9999968190765385,21.00000250339508,7.9999968190765385,21.00000250339508C7.9999968190765385,21.00000250339508,9.999996819076538,21.00000250339508,9.999996819076538,21.00000250339508C9.999996819076538,21.00000250339508,9.999996819076538,21.00000250339508,9.999996819076538,21.00000250339508ZM10.599996819076537,13.00000250339508C10.599996819076537,13.00000250339508,13.400036819076538,13.00000250339508,13.400036819076538,13.00000250339508C13.400036819076538,13.00000250339508,13.400036819076538,11.00000250339508,13.400036819076538,11.00000250339508C13.400036819076538,11.00000250339508,10.599996819076537,11.00000250339508,10.599996819076537,11.00000250339508C10.599996819076537,11.00000250339508,10.599996819076537,13.00000250339508,10.599996819076537,13.00000250339508C10.599996819076537,13.00000250339508,10.599996819076537,13.00000250339508,10.599996819076537,13.00000250339508ZM14.000036819076538,13.60000250339508C14.000036819076538,13.60000250339508,14.000036819076538,21.00000250339508,14.000036819076538,21.00000250339508C14.000036819076538,21.00000250339508,16.000036819076538,21.00000250339508,16.000036819076538,21.00000250339508C16.000036819076538,21.00000250339508,16.000036819076538,13.60000250339508,16.000036819076538,13.60000250339508C16.000036819076538,13.60000250339508,14.000036819076538,13.60000250339508,14.000036819076538,13.60000250339508C14.000036819076538,13.60000250339508,14.000036819076538,13.60000250339508,14.000036819076538,13.60000250339508ZM13.400036819076538,13.00000250339508C13.696536819076538,13.00000250339508,13.858836819076538,13.00080250339508,13.975436819076538,13.010302503395081C14.080336819076537,13.018902503395081,14.057536819076539,13.02930250339508,14.000036819076538,13.00000250339508C14.000036819076538,13.00000250339508,14.908036819076537,11.217992503395081,14.908036819076537,11.217992503395081C14.636636819076537,11.07969250339508,14.366836819076537,11.03562250339508,14.138236819076537,11.01694250339508C13.921336819076538,10.99922250339508,13.663536819076539,11.00000250339508,13.400036819076538,11.00000250339508C13.400036819076538,11.00000250339508,13.400036819076538,13.00000250339508,13.400036819076538,13.00000250339508C13.400036819076538,13.00000250339508,13.400036819076538,13.00000250339508,13.400036819076538,13.00000250339508ZM16.000036819076538,13.60000250339508C16.000036819076538,13.33650250339508,16.00083681907654,13.07870250339508,15.983136819076538,12.861802503395081C15.964436819076537,12.633202503395081,15.920336819076539,12.363402503395081,15.782036819076538,12.092002503395081C15.782036819076538,12.092002503395081,14.000036819076538,13.00000250339508,14.000036819076538,13.00000250339508C13.970736819076539,12.942502503395081,13.981136819076537,12.919702503395081,13.989736819076539,13.02460250339508C13.999236819076538,13.14120250339508,14.000036819076538,13.30350250339508,14.000036819076538,13.60000250339508C14.000036819076538,13.60000250339508,16.000036819076538,13.60000250339508,16.000036819076538,13.60000250339508C16.000036819076538,13.60000250339508,16.000036819076538,13.60000250339508,16.000036819076538,13.60000250339508ZM14.000036819076538,13.00000250339508C14.000036819076538,13.00000250339508,14.000036819076538,13.00000250339508,14.000036819076538,13.00000250339508C14.000036819076538,13.00000250339508,15.782036819076538,12.092002503395081,15.782036819076538,12.092002503395081C15.590336819076539,11.71570250339508,15.284336819076538,11.409702503395081,14.908036819076537,11.217992503395081C14.908036819076537,11.217992503395081,14.000036819076538,13.00000250339508,14.000036819076538,13.00000250339508C14.000036819076538,13.00000250339508,14.000036819076538,13.00000250339508,14.000036819076538,13.00000250339508ZM9.999996819076538,13.60000250339508C9.999996819076538,13.30350250339508,10.000776819076538,13.14120250339508,10.010306819076538,13.02460250339508C10.018876819076539,12.919702503395081,10.029306819076538,12.942502503395081,9.999996819076538,13.00000250339508C9.999996819076538,13.00000250339508,8.217986819076538,12.092002503395081,8.217986819076538,12.092002503395081C8.079686819076539,12.363402503395081,8.035626819076537,12.633202503395081,8.016946819076537,12.861802503395081C7.999226819076538,13.07870250339508,7.9999968190765385,13.33650250339508,7.9999968190765385,13.60000250339508C7.9999968190765385,13.60000250339508,9.999996819076538,13.60000250339508,9.999996819076538,13.60000250339508C9.999996819076538,13.60000250339508,9.999996819076538,13.60000250339508,9.999996819076538,13.60000250339508ZM10.599996819076537,11.00000250339508C10.336476819076537,11.00000250339508,10.078686819076538,10.99922250339508,9.861766819076538,11.01694250339508C9.633176819076539,11.03562250339508,9.363446819076538,11.07969250339508,9.092016819076537,11.217992503395081C9.092016819076537,11.217992503395081,9.999996819076538,13.00000250339508,9.999996819076538,13.00000250339508C9.942486819076539,13.02930250339508,9.919726819076539,13.018902503395081,10.024636819076537,13.010302503395081C10.141216819076538,13.00080250339508,10.303476819076538,13.00000250339508,10.599996819076537,13.00000250339508C10.599996819076537,13.00000250339508,10.599996819076537,11.00000250339508,10.599996819076537,11.00000250339508C10.599996819076537,11.00000250339508,10.599996819076537,11.00000250339508,10.599996819076537,11.00000250339508ZM9.999996819076538,13.00000250339508C9.999996819076538,13.00000250339508,9.999996819076538,13.00000250339508,9.999996819076538,13.00000250339508C9.999996819076538,13.00000250339508,9.092016819076537,11.217992503395081,9.092016819076537,11.217992503395081C8.715696819076538,11.409702503395081,8.409736819076539,11.71570250339508,8.217986819076538,12.092002503395081C8.217986819076538,12.092002503395081,9.999996819076538,13.00000250339508,9.999996819076538,13.00000250339508C9.999996819076538,13.00000250339508,9.999996819076538,13.00000250339508,9.999996819076538,13.00000250339508ZM19.000036819076538,8.00000250339508C19.000036819076538,8.00000250339508,19.000036819076538,17.80000250339508,19.000036819076538,17.80000250339508C19.000036819076538,17.80000250339508,21.000036819076538,17.80000250339508,21.000036819076538,17.80000250339508C21.000036819076538,17.80000250339508,21.000036819076538,8.00000250339508,21.000036819076538,8.00000250339508C21.000036819076538,8.00000250339508,19.000036819076538,8.00000250339508,19.000036819076538,8.00000250339508C19.000036819076538,8.00000250339508,19.000036819076538,8.00000250339508,19.000036819076538,8.00000250339508ZM16.80003681907654,20.00000250339508C16.80003681907654,20.00000250339508,7.199996819076538,20.00000250339508,7.199996819076538,20.00000250339508C7.199996819076538,20.00000250339508,7.199996819076538,22.00000250339508,7.199996819076538,22.00000250339508C7.199996819076538,22.00000250339508,16.80003681907654,22.00000250339508,16.80003681907654,22.00000250339508C16.80003681907654,22.00000250339508,16.80003681907654,20.00000250339508,16.80003681907654,20.00000250339508C16.80003681907654,20.00000250339508,16.80003681907654,20.00000250339508,16.80003681907654,20.00000250339508ZM4.9999968190765385,17.80000250339508C4.9999968190765385,17.80000250339508,4.9999968190765385,8.00000250339508,4.9999968190765385,8.00000250339508C4.9999968190765385,8.00000250339508,2.999996819076538,8.00000250339508,2.999996819076538,8.00000250339508C2.999996819076538,8.00000250339508,2.999996819076538,17.80000250339508,2.999996819076538,17.80000250339508C2.999996819076538,17.80000250339508,4.9999968190765385,17.80000250339508,4.9999968190765385,17.80000250339508C4.9999968190765385,17.80000250339508,4.9999968190765385,17.80000250339508,4.9999968190765385,17.80000250339508ZM4.599996819076538,8.800002503395081C4.599996819076538,8.800002503395081,10.679996819076537,4.240002503395081,10.679996819076537,4.240002503395081C10.679996819076537,4.240002503395081,9.479996819076538,2.6400025033950802,9.479996819076538,2.6400025033950802C9.479996819076538,2.6400025033950802,3.399996819076538,7.200002503395081,3.399996819076538,7.200002503395081C3.399996819076538,7.200002503395081,4.599996819076538,8.800002503395081,4.599996819076538,8.800002503395081C4.599996819076538,8.800002503395081,4.599996819076538,8.800002503395081,4.599996819076538,8.800002503395081ZM13.320036819076538,4.240002503395081C13.320036819076538,4.240002503395081,19.400036819076536,8.800002503395081,19.400036819076536,8.800002503395081C19.400036819076536,8.800002503395081,20.60003681907654,7.200002503395081,20.60003681907654,7.200002503395081C20.60003681907654,7.200002503395081,14.520036819076537,2.6400025033950802,14.520036819076537,2.6400025033950802C14.520036819076537,2.6400025033950802,13.320036819076538,4.240002503395081,13.320036819076538,4.240002503395081C13.320036819076538,4.240002503395081,13.320036819076538,4.240002503395081,13.320036819076538,4.240002503395081ZM10.679996819076537,4.240002503395081C11.439736819076538,3.6702225033950806,11.602336819076537,3.5706125033950804,11.745436819076538,3.5329525033950806C11.745436819076538,3.5329525033950806,11.236336819076538,1.5988345033950806,11.236336819076538,1.5988345033950806C10.623186819076539,1.7602315033950806,10.097326819076539,2.1770065033950807,9.479996819076538,2.6400025033950802C9.479996819076538,2.6400025033950802,10.679996819076537,4.240002503395081,10.679996819076537,4.240002503395081C10.679996819076537,4.240002503395081,10.679996819076537,4.240002503395081,10.679996819076537,4.240002503395081ZM14.520036819076537,2.6400025033950802C13.902736819076537,2.1770075033950804,13.376836819076537,1.7602315033950806,12.763736819076538,1.5988345033950806C12.763736819076538,1.5988345033950806,12.254636819076538,3.5329525033950806,12.254636819076538,3.5329525033950806C12.397636819076538,3.5706125033950804,12.560336819076538,3.6702225033950806,13.320036819076538,4.240002503395081C13.320036819076538,4.240002503395081,14.520036819076537,2.6400025033950802,14.520036819076537,2.6400025033950802C14.520036819076537,2.6400025033950802,14.520036819076537,2.6400025033950802,14.520036819076537,2.6400025033950802ZM11.745436819076538,3.5329525033950806C11.912336819076538,3.4890225033950806,12.087736819076538,3.4890225033950806,12.254636819076538,3.5329525033950806C12.254636819076538,3.5329525033950806,12.763736819076538,1.5988345033950806,12.763736819076538,1.5988345033950806C12.263136819076538,1.4670555033950805,11.736936819076538,1.4670555033950805,11.236336819076538,1.5988345033950806C11.236336819076538,1.5988345033950806,11.745436819076538,3.5329525033950806,11.745436819076538,3.5329525033950806C11.745436819076538,3.5329525033950806,11.745436819076538,3.5329525033950806,11.745436819076538,3.5329525033950806ZM7.199996819076538,20.00000250339508C6.623446819076538,20.00000250339508,6.251176819076538,19.99920250339508,5.967836819076538,19.97610250339508C5.6961768190765385,19.95390250339508,5.595456819076538,19.91620250339508,5.546006819076538,19.89100250339508C5.546006819076538,19.89100250339508,4.638026819076538,21.67300250339508,4.638026819076538,21.67300250339508C5.016406819076538,21.86580250339508,5.409626819076538,21.93710250339508,5.804976819076538,21.96940250339508C6.1886468190765385,22.000802503395082,6.656446819076538,22.00000250339508,7.199996819076538,22.00000250339508C7.199996819076538,22.00000250339508,7.199996819076538,20.00000250339508,7.199996819076538,20.00000250339508C7.199996819076538,20.00000250339508,7.199996819076538,20.00000250339508,7.199996819076538,20.00000250339508ZM2.999996819076538,17.80000250339508C2.999996819076538,18.34360250339508,2.9992268190765383,18.81140250339508,3.030566819076538,19.19500250339508C3.0628668190765382,19.59040250339508,3.1341868190765383,19.98360250339508,3.3269768190765383,20.36200250339508C3.3269768190765383,20.36200250339508,5.1089968190765385,19.45400250339508,5.1089968190765385,19.45400250339508C5.083796819076538,19.40450250339508,5.046126819076538,19.30380250339508,5.0239268190765385,19.03220250339508C5.000776819076538,18.74880250339508,4.9999968190765385,18.37660250339508,4.9999968190765385,17.80000250339508C4.9999968190765385,17.80000250339508,2.999996819076538,17.80000250339508,2.999996819076538,17.80000250339508C2.999996819076538,17.80000250339508,2.999996819076538,17.80000250339508,2.999996819076538,17.80000250339508ZM5.546006819076538,19.89100250339508C5.3578468190765385,19.795102503395082,5.204866819076538,19.64220250339508,5.1089968190765385,19.45400250339508C5.1089968190765385,19.45400250339508,3.3269768190765383,20.36200250339508,3.3269768190765383,20.36200250339508C3.614606819076538,20.92650250339508,4.0735468190765385,21.38540250339508,4.638026819076538,21.67300250339508C4.638026819076538,21.67300250339508,5.546006819076538,19.89100250339508,5.546006819076538,19.89100250339508C5.546006819076538,19.89100250339508,5.546006819076538,19.89100250339508,5.546006819076538,19.89100250339508ZM19.000036819076538,17.80000250339508C19.000036819076538,18.37660250339508,18.99923681907654,18.74880250339508,18.976136819076537,19.03220250339508C18.95393681907654,19.30380250339508,18.916236819076538,19.40450250339508,18.89103681907654,19.45400250339508C18.89103681907654,19.45400250339508,20.67303681907654,20.36200250339508,20.67303681907654,20.36200250339508C20.865836819076538,19.98360250339508,20.93713681907654,19.59040250339508,20.969436819076538,19.19500250339508C21.00083681907654,18.81140250339508,21.000036819076538,18.34360250339508,21.000036819076538,17.80000250339508C21.000036819076538,17.80000250339508,19.000036819076538,17.80000250339508,19.000036819076538,17.80000250339508C19.000036819076538,17.80000250339508,19.000036819076538,17.80000250339508,19.000036819076538,17.80000250339508ZM16.80003681907654,22.00000250339508C17.343636819076536,22.00000250339508,17.811436819076537,22.000802503395082,18.195036819076538,21.96940250339508C18.590436819076537,21.93710250339508,18.983636819076537,21.86580250339508,19.36203681907654,21.67300250339508C19.36203681907654,21.67300250339508,18.45403681907654,19.89100250339508,18.45403681907654,19.89100250339508C18.404636819076536,19.91620250339508,18.303836819076537,19.95390250339508,18.032236819076537,19.97610250339508C17.748836819076537,19.99920250339508,17.376636819076538,20.00000250339508,16.80003681907654,20.00000250339508C16.80003681907654,20.00000250339508,16.80003681907654,22.00000250339508,16.80003681907654,22.00000250339508C16.80003681907654,22.00000250339508,16.80003681907654,22.00000250339508,16.80003681907654,22.00000250339508ZM18.89103681907654,19.45400250339508C18.79513681907654,19.64220250339508,18.642236819076537,19.795102503395082,18.45403681907654,19.89100250339508C18.45403681907654,19.89100250339508,19.36203681907654,21.67300250339508,19.36203681907654,21.67300250339508C19.92653681907654,21.38540250339508,20.38543681907654,20.92650250339508,20.67303681907654,20.36200250339508C20.67303681907654,20.36200250339508,18.89103681907654,19.45400250339508,18.89103681907654,19.45400250339508C18.89103681907654,19.45400250339508,18.89103681907654,19.45400250339508,18.89103681907654,19.45400250339508ZM2.599996819076538,10.300002503395081C2.599996819076538,10.300002503395081,11.640036819076538,3.5200025033950806,11.640036819076538,3.5200025033950806C11.640036819076538,3.5200025033950806,10.439996819076539,1.9200005033950807,10.439996819076539,1.9200005033950807C10.439996819076539,1.9200005033950807,1.399995819076538,8.70000250339508,1.399995819076538,8.70000250339508C1.399995819076538,8.70000250339508,2.599996819076538,10.300002503395081,2.599996819076538,10.300002503395081C2.599996819076538,10.300002503395081,2.599996819076538,10.300002503395081,2.599996819076538,10.300002503395081ZM12.360036819076537,3.5200025033950806C12.360036819076537,3.5200025033950806,21.400036819076536,10.300002503395081,21.400036819076536,10.300002503395081C21.400036819076536,10.300002503395081,22.60003681907654,8.70000250339508,22.60003681907654,8.70000250339508C22.60003681907654,8.70000250339508,13.560036819076538,1.9200005033950807,13.560036819076538,1.9200005033950807C13.560036819076538,1.9200005033950807,12.360036819076537,3.5200025033950806,12.360036819076537,3.5200025033950806C12.360036819076537,3.5200025033950806,12.360036819076537,3.5200025033950806,12.360036819076537,3.5200025033950806ZM11.640036819076538,3.5200025033950806C11.823236819076538,3.3825625033950804,11.919836819076538,3.3108225033950807,11.993036819076538,3.2636225033950805C12.055736819076538,3.2232125033950805,12.046236819076539,3.2378525033950805,12.000036819076538,3.2500025033950806C12.000036819076538,3.2500025033950806,11.490836819076538,1.3158900033950807,11.490836819076538,1.3158900033950807C11.066836819076538,1.4275225033950805,10.713066819076538,1.7152005033950806,10.439996819076539,1.9200005033950807C10.439996819076539,1.9200005033950807,11.640036819076538,3.5200025033950806,11.640036819076538,3.5200025033950806C11.640036819076538,3.5200025033950806,11.640036819076538,3.5200025033950806,11.640036819076538,3.5200025033950806ZM13.560036819076538,1.9200005033950807C13.286936819076539,1.7152005033950806,12.933236819076537,1.4275225033950805,12.509136819076538,1.3158900033950807C12.509136819076538,1.3158900033950807,12.000036819076538,3.2500025033950806,12.000036819076538,3.2500025033950806C11.953836819076539,3.2378525033950805,11.944336819076538,3.2232125033950805,12.007036819076538,3.2636225033950805C12.080136819076538,3.3108225033950807,12.176736819076538,3.3825625033950804,12.360036819076537,3.5200025033950806C12.360036819076537,3.5200025033950806,13.560036819076538,1.9200005033950807,13.560036819076538,1.9200005033950807C13.560036819076538,1.9200005033950807,13.560036819076538,1.9200005033950807,13.560036819076538,1.9200005033950807ZM12.000036819076538,3.2500025033950806C12.000036819076538,3.2500025033950806,12.000036819076538,3.2500025033950806,12.000036819076538,3.2500025033950806C12.000036819076538,3.2500025033950806,12.509136819076538,1.3158900033950807,12.509136819076538,1.3158900033950807C12.175436819076538,1.2280400033950805,11.824636819076538,1.2280400033950805,11.490836819076538,1.3158900033950807C11.490836819076538,1.3158900033950807,12.000036819076538,3.2500025033950806,12.000036819076538,3.2500025033950806C12.000036819076538,3.2500025033950806,12.000036819076538,3.2500025033950806,12.000036819076538,3.2500025033950806Z" fill="#000000" fill-opacity="1"/></g></g></svg>