<svg xmlns="http://www.w3.org/2000/svg" xmlns:xlink="http://www.w3.org/1999/xlink" fill="none" version="1.1" width="20" height="20" viewBox="0 0 20 20"><defs><clipPath id="master_svg0_1099_001079/1099_002825/498_28153"><rect x="0" y="0" width="20" height="20" rx="0"/></clipPath></defs><g style="mix-blend-mode:passthrough" clip-path="url(#master_svg0_1099_001079/1099_002825/498_28153)"><g style="mix-blend-mode:passthrough"><path d="M13,7C13,7,7,7,7,7C7,7,7,13,7,13C7,13,13,13,13,13C13,13,13,7,13,7C13,7,13,7,13,7Z" fill="#105DFB" fill-opacity="1"/></g><g style="mix-blend-mode:passthrough"><path d="M7,2C7,1.7347839999999999,7.10536,1.4804300000000001,7.29289,1.292893C7.48043,1.105357,7.73478,1.0000000000000002,8,1C8.26522,1.0000000000000004,8.51957,1.105357,8.70711,1.292893C8.894639999999999,1.4804300000000001,9,1.7347839999999999,9,2C9,2,9,3,9,3C9,3,11,3,11,3C11,3,11,2,11,2C11,1.7347839999999999,11.1054,1.4804300000000001,11.2929,1.292893C11.4804,1.105357,11.7348,1.0000000000000002,12,1C12.2652,1.0000000000000004,12.5196,1.105357,12.7071,1.292893C12.8946,1.4804300000000001,13,1.7347839999999999,13,2C13,2,13,3,13,3C13,3,15,3,15,3C15.5304,3,16.039099999999998,3.21071,16.4142,3.58579C16.7893,3.96086,17,4.46957,17,5C17,5,17,7,17,7C17,7,18,7,18,7C18.2652,7,18.5196,7.10536,18.7071,7.29289C18.8946,7.48043,19,7.73478,19,8C19,8.26522,18.8946,8.51957,18.7071,8.70711C18.5196,8.894639999999999,18.2652,9,18,9C18,9,17,9,17,9C17,9,17,11,17,11C17,11,18,11,18,11C18.2652,11,18.5196,11.1054,18.7071,11.2929C18.8946,11.4804,19,11.7348,19,12C19,12.2652,18.8946,12.5196,18.7071,12.7071C18.5196,12.8946,18.2652,13,18,13C18,13,17,13,17,13C17,13,17,15,17,15C17,15.5304,16.7893,16.039099999999998,16.4142,16.4142C16.039099999999998,16.7893,15.5304,17,15,17C15,17,13,17,13,17C13,17,13,18,13,18C13,18.2652,12.8946,18.5196,12.7071,18.7071C12.5196,18.8946,12.2652,19,12,19C11.7348,19,11.4804,18.8946,11.2929,18.7071C11.1054,18.5196,11,18.2652,11,18C11,18,11,17,11,17C11,17,9,17,9,17C9,17,9,18,9,18C9,18.2652,8.894639999999999,18.5196,8.70711,18.7071C8.51957,18.8946,8.26522,19,8,19C7.73478,19,7.48043,18.8946,7.29289,18.7071C7.10536,18.5196,7,18.2652,7,18C7,18,7,17,7,17C7,17,5,17,5,17C4.46957,17,3.96086,16.7893,3.58579,16.4142C3.21071,16.039099999999998,3,15.5304,3,15C3,15,3,13,3,13C3,13,2,13,2,13C1.7347839999999999,13,1.4804300000000001,12.8946,1.292893,12.7071C1.105357,12.5196,1.0000000000000002,12.2652,1,12C0.9999999999999999,11.7348,1.105357,11.4804,1.292893,11.2929C1.4804300000000001,11.1054,1.7347839999999999,11,2,11C2,11,3,11,3,11C3,11,3,9,3,9C3,9,2,9,2,9C1.7347839999999999,9,1.4804300000000001,8.894639999999999,1.292893,8.70711C1.105357,8.51957,1.0000000000000002,8.26522,1,8C0.9999999999999999,7.73478,1.105357,7.48043,1.292893,7.29289C1.4804300000000001,7.10536,1.7347839999999999,7,2,7C2,7,3,7,3,7C3,7,3,5,3,5C3,4.46957,3.21071,3.96086,3.58579,3.58579C3.96086,3.21071,4.46957,3,5,3C5,3,7,3,7,3C7,3,7,2,7,2C7,2,7,2,7,2ZM5,5C5,5,15,5,15,5C15,5,15,15,15,15C15,15,5,15,5,15C5,15,5,5,5,5C5,5,5,5,5,5Z" fill-rule="evenodd" fill="#105DFB" fill-opacity="1"/></g></g></svg>
