<svg xmlns="http://www.w3.org/2000/svg" xmlns:xlink="http://www.w3.org/1999/xlink" fill="none" version="1.1" width="24" height="24" viewBox="0 0 24 24"><defs><clipPath id="master_svg0_131_7995"><rect x="0" y="0" width="24" height="24" rx="0"/></clipPath></defs><g style="mix-blend-mode:passthrough" clip-path="url(#master_svg0_131_7995)"><g style="mix-blend-mode:passthrough"><path d="M17.161116791915894,15.6722C17.161116791915894,15.6722,17.451416791915893,14.7153,17.451416791915893,14.7153C17.451416791915893,14.7153,17.451416791915893,14.7153,17.451416791915893,14.7153C17.451416791915893,14.7153,17.161116791915894,15.6722,17.161116791915894,15.6722C17.161116791915894,15.6722,17.161116791915894,15.6722,17.161116791915894,15.6722ZM19.000016791915893,21C19.000016791915893,21.5523,19.447716791915894,22,20.000016791915893,22C20.552316791915892,22,21.000016791915893,21.5523,21.000016791915893,21C21.000016791915893,21,19.000016791915893,21,19.000016791915893,21C19.000016791915893,21,19.000016791915893,21,19.000016791915893,21ZM19.827816791915893,18.3389C19.827816791915893,18.3389,20.784716791915894,18.0486,20.784716791915894,18.0486C20.784716791915894,18.0486,20.784716791915894,18.0486,20.784716791915894,18.0486C20.784716791915894,18.0486,19.827816791915893,18.3389,19.827816791915893,18.3389C19.827816791915893,18.3389,19.827816791915893,18.3389,19.827816791915893,18.3389ZM6.838856791915894,15.6722C6.838856791915894,15.6722,7.129136791915894,16.6292,7.129136791915894,16.6292C7.129136791915894,16.6292,6.838856791915894,15.6722,6.838856791915894,15.6722C6.838856791915894,15.6722,6.838856791915894,15.6722,6.838856791915894,15.6722ZM2.9999999628158935,21C2.9999999628158935,21.5523,3.4477147919158937,22,3.9999967919158936,22C4.552286791915893,22,4.999996791915894,21.5523,4.999996791915894,21C4.999996791915894,21,2.9999999628158935,21,2.9999999628158935,21C2.9999999628158935,21,2.9999999628158935,21,2.9999999628158935,21ZM4.172236791915894,18.3389C4.172236791915894,18.3389,5.129176791915894,18.6291,5.129176791915894,18.6291C5.129176791915894,18.6291,4.172236791915894,18.3389,4.172236791915894,18.3389C4.172236791915894,18.3389,4.172236791915894,18.3389,4.172236791915894,18.3389ZM9.499996791915894,16.5C9.499996791915894,16.5,14.500016791915893,16.5,14.500016791915893,16.5C14.500016791915893,16.5,14.500016791915893,14.5,14.500016791915893,14.5C14.500016791915893,14.5,9.499996791915894,14.5,9.499996791915894,14.5C9.499996791915894,14.5,9.499996791915894,16.5,9.499996791915894,16.5C9.499996791915894,16.5,9.499996791915894,16.5,9.499996791915894,16.5ZM14.500016791915893,16.5C15.968316791915894,16.5,16.480816791915892,16.5108,16.870916791915896,16.6292C16.870916791915896,16.6292,17.451416791915893,14.7153,17.451416791915893,14.7153C16.705916791915893,14.4891,15.822816791915894,14.5,14.500016791915893,14.5C14.500016791915893,14.5,14.500016791915893,16.5,14.500016791915893,16.5C14.500016791915893,16.5,14.500016791915893,16.5,14.500016791915893,16.5ZM21.000016791915893,21C21.000016791915893,19.6772,21.010916791915893,18.7941,20.784716791915894,18.0486C20.784716791915894,18.0486,18.870816791915892,18.6291,18.870816791915892,18.6291C18.989116791915894,19.0192,19.000016791915893,19.5317,19.000016791915893,21C19.000016791915893,21,21.000016791915893,21,21.000016791915893,21C21.000016791915893,21,21.000016791915893,21,21.000016791915893,21ZM16.870916791915896,16.6292C17.829716791915892,16.92,18.580016791915895,17.670299999999997,18.870816791915892,18.6291C18.870816791915892,18.6291,20.784716791915894,18.0486,20.784716791915894,18.0486C20.299916791915894,16.4506,19.049416791915892,15.2,17.451416791915893,14.7153C17.451416791915893,14.7153,16.870916791915896,16.6292,16.870916791915896,16.6292C16.870916791915896,16.6292,16.870916791915896,16.6292,16.870916791915896,16.6292ZM9.499996791915894,14.5C8.177186791915894,14.5,7.294096791915893,14.4891,6.548566791915894,14.7153C6.548566791915894,14.7153,7.129136791915894,16.6292,7.129136791915894,16.6292C7.519206791915893,16.5108,8.031676791915894,16.5,9.499996791915894,16.5C9.499996791915894,16.5,9.499996791915894,14.5,9.499996791915894,14.5C9.499996791915894,14.5,9.499996791915894,14.5,9.499996791915894,14.5ZM4.999996791915894,21C4.999996791915894,19.5317,5.010846791915894,19.0192,5.129176791915894,18.6291C5.129176791915894,18.6291,3.2152997919158937,18.0486,3.2152997919158937,18.0486C2.9891499919158937,18.7941,2.9999999628158935,19.6772,2.9999999628158935,21C2.9999999628158935,21,4.999996791915894,21,4.999996791915894,21C4.999996791915894,21,4.999996791915894,21,4.999996791915894,21ZM6.548566791915894,14.7153C4.950566791915893,15.2,3.7000497919158937,16.4506,3.2152997919158937,18.0486C3.2152997919158937,18.0486,5.129176791915894,18.6291,5.129176791915894,18.6291C5.420026791915894,17.670299999999997,6.170336791915894,16.92,7.129136791915894,16.6292C7.129136791915894,16.6292,6.548566791915894,14.7153,6.548566791915894,14.7153C6.548566791915894,14.7153,6.548566791915894,14.7153,6.548566791915894,14.7153ZM15.500016791915893,7.5C15.500016791915893,9.433,13.933016791915893,11,11.999996791915894,11C11.999996791915894,11,11.999996791915894,13,11.999996791915894,13C15.037616791915893,13,17.500016791915893,10.53757,17.500016791915893,7.5C17.500016791915893,7.5,15.500016791915893,7.5,15.500016791915893,7.5C15.500016791915893,7.5,15.500016791915893,7.5,15.500016791915893,7.5ZM11.999996791915894,11C10.066996791915894,11,8.499996791915894,9.433,8.499996791915894,7.5C8.499996791915894,7.5,6.499996791915894,7.5,6.499996791915894,7.5C6.499996791915894,10.53757,8.962426791915894,13,11.999996791915894,13C11.999996791915894,13,11.999996791915894,11,11.999996791915894,11C11.999996791915894,11,11.999996791915894,11,11.999996791915894,11ZM8.499996791915894,7.5C8.499996791915894,5.567,10.066996791915894,4,11.999996791915894,4C11.999996791915894,4,11.999996791915894,2,11.999996791915894,2C8.962426791915894,2,6.499996791915894,4.4624299999999995,6.499996791915894,7.5C6.499996791915894,7.5,8.499996791915894,7.5,8.499996791915894,7.5C8.499996791915894,7.5,8.499996791915894,7.5,8.499996791915894,7.5ZM11.999996791915894,4C13.933016791915893,4,15.500016791915893,5.567,15.500016791915893,7.5C15.500016791915893,7.5,17.500016791915893,7.5,17.500016791915893,7.5C17.500016791915893,4.4624299999999995,15.037616791915893,2,11.999996791915894,2C11.999996791915894,2,11.999996791915894,4,11.999996791915894,4C11.999996791915894,4,11.999996791915894,4,11.999996791915894,4Z" fill="#000000" fill-opacity="1"/></g></g></svg>